<svg width="300" height="380" viewBox="0 0 300 380" fill="none" xmlns="http://www.w3.org/2000/svg">
<g clip-path="url(#clip0_33_47)">
<path fill-rule="evenodd" clip-rule="evenodd" d="M300 32C300 14.3269 285.673 0 268 0H34C16.3269 0 2 14.3269 2 32V152.501L25.4404 161.038H25.4414C25.7555 161.15 43.3795 167.411 62.8164 169.577H62.8174C83.988 171.938 92.8899 172.466 96 172.579H195.655C226.321 172.579 248.26 180.146 263.207 193.703C277.763 206.907 284 226 286.624 240.932C291.037 242.169 296.022 244.311 300 246.548V32ZM91.7607 102.672C93.0514 101.997 94.4746 101.66 96.0293 101.66C97.9358 101.66 99.6515 102.144 101.177 103.112C102.731 104.08 103.949 105.386 104.829 107.028C105.709 108.671 106.149 110.519 106.149 112.572C106.149 114.625 105.709 116.474 104.829 118.116C103.949 119.759 102.731 121.064 101.177 122.032C99.6516 122.971 97.9357 123.44 96.0293 123.44C94.4453 123.44 93.0075 123.117 91.7168 122.472C90.6184 121.884 89.7095 121.107 88.9893 120.142V131.756H85.0293V102.1H88.9893V104.973C89.7336 104.004 90.6571 103.237 91.7607 102.672ZM114.555 103.112C116.197 102.144 118.031 101.66 120.055 101.66C121.991 101.66 123.692 102.101 125.158 102.98C126.654 103.86 127.813 105.077 128.635 106.632C129.485 108.186 129.91 109.947 129.91 111.912C129.91 112.205 129.896 112.528 129.866 112.88C129.837 113.203 129.778 113.584 129.69 114.024H113.324C113.464 114.838 113.712 115.586 114.07 116.268C114.657 117.353 115.493 118.204 116.578 118.82C117.663 119.407 118.91 119.7 120.318 119.7C121.492 119.7 122.562 119.495 123.53 119.084C124.527 118.673 125.378 118.057 126.082 117.236L128.635 119.832C127.637 121.005 126.405 121.9 124.938 122.516C123.501 123.132 121.961 123.44 120.318 123.44C118.236 123.44 116.358 122.971 114.687 122.032C113.015 121.064 111.695 119.759 110.727 118.116C109.759 116.474 109.274 114.611 109.274 112.528C109.274 110.475 109.744 108.627 110.683 106.984C111.651 105.342 112.941 104.051 114.555 103.112ZM37.6084 123V92.4639H57.7158V96.248H41.7441V105.576H56.4844V109.184H41.7441V119.216H57.9355V123H37.6084ZM68.6699 112.265L61.0967 102.1H65.8936L71.2217 109.402L76.3652 102.1H80.9854L73.5527 112.197L81.3809 123H76.585L70.9775 115.118L65.3652 123H60.7012L68.6699 112.265ZM138.54 104.036C139.772 102.452 141.547 101.66 143.864 101.66C144.92 101.66 145.874 101.851 146.725 102.232C147.575 102.584 148.367 103.186 149.101 104.036L146.504 106.72C146.064 106.251 145.58 105.913 145.052 105.708C144.524 105.503 143.908 105.4 143.204 105.4C141.738 105.4 140.535 105.869 139.597 106.808C138.658 107.746 138.188 109.17 138.188 111.076V123H134.229V102.1H138.188V104.532C138.3 104.362 138.416 104.196 138.54 104.036ZM155.015 102.1V93.3438H158.975V102.1H164.122V105.708H158.975V123H155.015V105.708H149.866V102.1H155.015ZM98.8447 106.324C97.8474 105.708 96.7037 105.4 95.4131 105.4C94.0931 105.4 92.9339 105.708 91.9365 106.324C90.9395 106.911 90.1627 107.747 89.6055 108.832C89.0481 109.917 88.7686 111.164 88.7686 112.572C88.7686 113.951 89.0327 115.182 89.5605 116.268C90.1179 117.324 90.8953 118.16 91.8926 118.776C92.9192 119.392 94.0785 119.7 95.3691 119.7C96.6889 119.7 97.8475 119.392 98.8447 118.776C99.8421 118.16 100.634 117.324 101.221 116.268C101.807 115.182 102.101 113.936 102.101 112.528C102.101 111.15 101.807 109.917 101.221 108.832C100.634 107.747 99.842 106.911 98.8447 106.324ZM123.267 106.148C122.357 105.591 121.257 105.312 119.967 105.312C118.617 105.312 117.429 105.606 116.402 106.192C115.376 106.779 114.584 107.6 114.026 108.656C113.698 109.279 113.469 109.968 113.334 110.724H126.048C125.94 109.859 125.718 109.096 125.378 108.436C124.879 107.439 124.176 106.676 123.267 106.148ZM154.399 71.5312L146.238 51.6162H153.498L157.76 64.6006L162.122 51.6162H169.383L160.23 73.0879L156.446 82.0195H149.538L154.399 71.5312ZM78.458 52.6279C80.2179 51.6308 82.2123 51.1319 84.4414 51.1318C86.6707 51.1318 88.6658 51.616 90.4258 52.584C92.1857 53.552 93.5788 54.8867 94.6055 56.5879C95.6321 58.2598 96.1455 60.1518 96.1455 62.2637C96.1455 64.3757 95.6321 66.283 94.6055 67.9844C93.5788 69.6855 92.1856 71.035 90.4258 72.0322C88.6658 73.0002 86.6707 73.4844 84.4414 73.4844C82.2416 73.4844 80.2472 73 78.458 72.0322C76.6981 71.0349 75.304 69.6856 74.2773 67.9844C73.2507 66.283 72.7373 64.3757 72.7373 62.2637C72.7374 60.1518 73.2507 58.2598 74.2773 56.5879C75.304 54.9159 76.698 53.5959 78.458 52.6279ZM128.9 52.584C130.631 51.616 132.582 51.1318 134.753 51.1318C136.865 51.1319 138.728 51.5868 140.341 52.4961C141.954 53.4054 143.216 54.667 144.125 56.2803C145.064 57.8935 145.533 59.7417 145.533 61.8242C145.533 62.2054 145.503 62.6159 145.444 63.0557C145.415 63.4663 145.342 63.9505 145.225 64.5078L129.897 64.5439C129.996 64.8888 130.117 65.2143 130.265 65.5195C130.734 66.3995 131.38 67.0892 132.201 67.5879C133.052 68.0571 134.049 68.2919 135.192 68.292C136.248 68.292 137.202 68.1157 138.053 67.7637C138.903 67.3823 139.652 66.8251 140.297 66.0918L143.993 69.7881C142.937 71.02 141.661 71.9436 140.165 72.5596C138.669 73.1756 137.026 73.4844 135.236 73.4844C132.919 73.4843 130.852 73.0146 129.033 72.0762C127.244 71.1082 125.835 69.7735 124.809 68.0723C123.782 66.3709 123.269 64.449 123.269 62.3076C123.269 60.1664 123.767 58.2598 124.765 56.5879C125.791 54.8867 127.17 53.552 128.9 52.584ZM171.427 73V41.0557H178.159V53.0039C178.648 52.6191 179.19 52.2882 179.787 52.0117C180.99 51.4545 182.31 51.1758 183.747 51.1758C185.771 51.1758 187.561 51.66 189.115 52.6279C190.699 53.5959 191.931 54.9161 192.811 56.5879C193.72 58.2598 194.175 60.1664 194.175 62.3076C194.175 64.449 193.72 66.3563 192.811 68.0283C191.931 69.7001 190.699 71.0204 189.115 71.9883C187.561 72.9562 185.771 73.4404 183.747 73.4404C182.31 73.4404 180.99 73.1462 179.787 72.5596C179.153 72.235 178.582 71.8562 178.07 71.4258V73H171.427ZM241.939 53.0039V41.0557H248.671V73H242.071V71.4258C241.56 71.8561 240.989 72.2351 240.355 72.5596C239.153 73.1462 237.818 73.4404 236.352 73.4404C234.328 73.4404 232.523 72.9562 230.939 71.9883C229.385 71.0203 228.152 69.7002 227.243 68.0283C226.363 66.3563 225.923 64.449 225.923 62.3076C225.923 60.1664 226.363 58.2598 227.243 56.5879C228.152 54.9159 229.385 53.5959 230.939 52.6279C232.523 51.66 234.328 51.1758 236.352 51.1758C237.818 51.1758 239.138 51.4544 240.312 52.0117C240.908 52.2883 241.451 52.619 241.939 53.0039ZM36.9922 73V41.9355H41.9199L52.8955 59.0303L63.832 41.9355H68.8037V73H61.8965V55.8223L55.1641 66.3115H50.5879L43.8564 55.7656V73H36.9922ZM107.77 52.2324C109.089 51.5285 110.57 51.1758 112.213 51.1758C113.797 51.1758 115.191 51.5576 116.394 52.3203C117.625 53.0535 118.593 54.0359 119.297 55.2676C120.001 56.4996 120.354 57.8497 120.354 59.3164V73H113.621V60.8115C113.621 59.6972 113.269 58.8025 112.565 58.1279C111.891 57.4239 111.025 57.0723 109.969 57.0723C109.236 57.0723 108.59 57.2331 108.033 57.5557C107.476 57.849 107.036 58.2893 106.713 58.876C106.39 59.4332 106.23 60.0784 106.229 60.8115V73H99.4971V51.6162H106.229V53.291C106.689 52.8814 107.203 52.5288 107.77 52.2324ZM197.595 73V51.6162H204.327V73H197.595ZM215.8 53.2441C217.12 51.8656 218.953 51.1758 221.3 51.1758C222.326 51.1758 223.221 51.3375 223.983 51.6602C224.775 51.9535 225.465 52.423 226.052 53.0684L222.048 58.1279C221.755 57.8053 221.387 57.5559 220.947 57.3799C220.507 57.2039 220.008 57.1162 219.451 57.1162C218.337 57.1163 217.442 57.468 216.768 58.1719C216.122 58.8465 215.8 59.8733 215.8 61.252V73H209.067V51.6162H215.8V53.2441ZM86.9492 57.9082C86.2452 57.4683 85.4093 57.248 84.4414 57.248C83.5028 57.2481 82.6669 57.4682 81.9336 57.9082C81.2003 58.3188 80.6284 58.9054 80.2178 59.668C79.8072 60.4305 79.6016 61.3104 79.6016 62.3076C79.6016 63.2756 79.8071 64.1562 80.2178 64.9482C80.6284 65.7108 81.2004 66.312 81.9336 66.752C82.6669 67.1626 83.5028 67.3681 84.4414 67.3682C85.4093 67.3682 86.2599 67.1625 86.9932 66.752C87.7265 66.312 88.2847 65.7109 88.666 64.9482C89.0767 64.1562 89.2812 63.261 89.2812 62.2637C89.2812 61.2666 89.0766 60.4012 88.666 59.668C88.2553 58.9053 87.6825 58.3189 86.9492 57.9082ZM185.022 57.9082C184.318 57.4683 183.497 57.248 182.559 57.248C181.62 57.2481 180.784 57.4682 180.051 57.9082C179.318 58.3189 178.746 58.9054 178.335 59.668C177.954 60.4305 177.763 61.3104 177.763 62.3076C177.763 63.305 177.968 64.1856 178.379 64.9482C178.79 65.7108 179.347 66.312 180.051 66.752C180.784 67.1626 181.62 67.3681 182.559 67.3682C183.497 67.3682 184.319 67.1479 185.022 66.708C185.756 66.268 186.329 65.6669 186.739 64.9043C187.15 64.1416 187.354 63.2756 187.354 62.3076C187.354 61.3105 187.15 60.4305 186.739 59.668C186.329 58.9053 185.756 58.3189 185.022 57.9082ZM240.047 57.9082C239.343 57.4683 238.522 57.248 237.583 57.248C236.644 57.2481 235.808 57.4682 235.075 57.9082C234.371 58.3482 233.799 58.9493 233.359 59.7119C232.949 60.4745 232.743 61.3398 232.743 62.3076C232.743 63.2756 232.949 64.1416 233.359 64.9043C233.77 65.6668 234.342 66.2681 235.075 66.708C235.808 67.148 236.63 67.3681 237.539 67.3682C238.507 67.3682 239.343 67.1625 240.047 66.752C240.751 66.312 241.308 65.7107 241.719 64.9482C242.129 64.1856 242.335 63.305 242.335 62.3076C242.335 61.3104 242.129 60.4452 241.719 59.7119C241.337 58.9494 240.78 58.3482 240.047 57.9082ZM137.305 56.9404C136.63 56.5004 135.794 56.2803 134.797 56.2803C133.741 56.2803 132.816 56.5297 132.024 57.0283C131.262 57.4976 130.661 58.172 130.221 59.0518C130.094 59.3236 129.989 59.6146 129.901 59.9229L139.243 59.8965C139.152 59.4888 139.036 59.119 138.889 58.7881C138.537 57.9668 138.009 57.3511 137.305 56.9404ZM198.343 42.332C199.047 41.6281 199.927 41.2764 200.982 41.2764C202.038 41.2764 202.904 41.628 203.579 42.332C204.254 43.0359 204.591 43.9159 204.591 44.9717C204.591 45.9983 204.254 46.879 203.579 47.6123C202.904 48.3163 202.038 48.668 200.982 48.668C199.927 48.6679 199.047 48.3161 198.343 47.6123C197.668 46.879 197.331 45.9983 197.331 44.9717C197.331 43.9158 197.668 43.036 198.343 42.332ZM62.6094 285.62C68.0267 308.707 87.4325 342.082 147.175 346.76C232.267 346.182 245.051 296.369 245.051 266.597C245.051 223.962 229.812 216.768 195.656 216.768C99.9361 219.196 71.0587 213.013 42.1833 206.83C37.7865 205.889 33.3896 204.947 28.7568 204.036C28.7568 204.036 29.5527 225.91 42.619 248.719C55.2554 270.78 78.0371 282.094 88.3855 287.233C91.749 288.903 93.799 289.921 93.7602 290.444C93.6773 291.551 89.5911 290.973 89.5496 290.967C74.2912 288.838 62.6094 285.62 62.6094 285.62ZM287.017 253.551C294.196 255.846 300 259.425 300 265.005C300 270.547 294.273 274.416 287.161 277.086L287.157 277.088C284.957 277.913 282.628 278.623 280.292 279.235C279.419 279.746 278.582 280.369 277.875 281.145C276.247 282.936 275.313 285.261 274.788 287.145C271.176 309.784 260.73 328.649 246.165 344.623C222.894 370.14 131.924 406.555 64.9894 348.544C34.1111 321.781 28.4173 288.698 29.782 273.532L29.8116 273.199C-5.72951 244.532 0.268404 188.04 0.546872 185.607L2.84571 165.58L21.3569 172.322C21.5307 172.385 40.3993 179.153 61.4878 181.503C83.2319 183.928 92.4095 184.465 95.7906 184.579H195.656C253.156 184.579 270.37 212.873 274.922 243.798C275.469 245.593 276.376 247.693 277.875 249.342C279.172 250.771 280.902 251.7 282.518 252.306C283.715 252.592 284.898 252.906 286.051 253.253C286.732 253.367 287.161 253.401 287.161 253.401L287.017 253.551ZM199.505 250.007C199.505 240.978 204.721 236.081 212.47 236.081C220.967 236.081 225.588 240.826 225.588 249.855C225.588 258.117 220.074 263.168 212.47 263.168C204.721 263.168 199.505 258.424 199.505 250.007Z" fill="#081245"/>
</g>
<defs>
<clipPath id="clip0_33_47">
<rect width="300" height="380" fill="white"/>
</clipPath>
</defs>
</svg>
